PathFileType	4	(X/Y/Z)	/home/abdul/Desktop/myosuite/custom_workspace/IK/output/S4_12_1.trc
DataRate	CameraRate	NumFrames	NumMarkers	Units	OrigDataRate	OrigDataStartFrame	OrigNumFrames
200.0	200.0	39	3	mm	200.0	566	1130
Frame#	Time	V_Shoulder			V_Elbow			V_Wrist		
		X1	Y1	Z1	X2	Y2	Z2	X3	Y3	Z3

566	2.825	-90.28251349313064	585.2842411001142	272.36859087376433	-154.01882693451964	439.93740064940357	20.70908364837306	-96.02550355391904	273.8702869072782	153.44928101705898
567	2.83	-90.29540332482793	585.1744373585542	272.36832506598364	-153.97324115227792	439.5589570395665	20.865908528133826	-95.94976722422422	272.3639759619624	152.21268750120453
568	2.835	-90.30745409355313	585.0613718354556	272.36777789926515	-153.9215511872569	439.1771128589236	21.021709731953244	-95.86567128290454	270.8706800873295	150.96929049625356
569	2.84	-90.31864192245486	584.9450916234549	272.3669283039871	-153.86390545105638	438.79236201084404	21.17612096401569	-95.77352610831275	269.3910596126705	149.71942116690758
570	2.845	-90.32894348299094	584.8256478396332	272.3657561939479	-153.80045807965197	438.4051974655941	21.32878139118411	-95.67365392189319	267.9257553527616	148.4634242294832
571	2.85	-90.3383360755903	584.7030955137353	272.36424253250794	-153.73136837911105	438.01611011786946	21.47933674976227	-95.56638783404415	266.4753879684628	147.20165802631755
572	2.855	-90.34679770767008	584.5774934687798	272.36236939586	-153.65680027380574	437.62558765801396	21.627440427250864	-95.45207085634718	265.04055735762694	145.93449455963028
573	2.86	-90.35430716876574	584.4489041943918	272.3601200331934	-153.57692175972358	437.2341134602356	21.77275451412044	-95.33105488390731	263.62184207622056	144.6623194829455
574	2.865	-90.360844102548	584.3173937132018	272.3574789235295	-153.49190436529517	436.8421654910118	21.914950820855097	-95.2036996517387	262.21979878953505	143.38553204831132
575	2.87	-90.36638907551442	584.1830314406701	272.3544318290146	-153.40192262196308	436.45021524074417	22.05371185578543	-95.07037166930026	260.8349617533492	142.10454500771027
576	2.875	-90.37092364216136	584.0458900387016	272.3509658444691	-153.30715354650795	436.0587266815854	22.18873175952246	-94.93144313743358	259.4678423249054	140.8197844672209
577	2.88	-90.374430406457	583.9060452634238	272.34706944300416	-153.20777613693247	435.66815525421174	22.319717192120265	-94.78729085207871	258.11892850357754	139.53168969267574
578	2.885	-90.37689307945504	583.7635758075162	272.3427325175294	-153.10397088348512	435.2789468861622	22.446388169428594	-94.63829509924096	256.7886845011323	138.24071286576026
579	2.89	-90.37829653290486	583.6185631374793	272.33794641798767	-152.9959192961884	434.891537044213	22.56847884544313	-94.48483854575235	255.47755034152914	136.94731878970777
580	2.895	-90.37862684873255	583.4710913262469	272.3327039841709	-152.8838034500237	434.5063498230968	22.685738237814572	-94.32730513041457	254.1859414902519	135.65198454397148
581	2.9	-90.37787136428544	583.3212468815464	272.32699957398154	-152.76780554872153	434.12379707272356	22.797930894035403	-94.16607896012334	252.91424851323117	134.35519908748972
582	2.905	-90.3760187132497	583.1691185704225	272.32082908702233	-152.64810750791253	433.744277565907	22.9048374961805	-94.00154321555905	251.66283676548426	133.05746281040632
583	2.91	-90.37305886217047	583.0147972403443	272.3141899834123	-152.5248905582163	433.368176208451	23.00625540243141	-93.83407907098317	250.43204610968183	131.75928703436108
584	2.915	-90.3689831425204	582.8583756373195	272.3070812977439	-152.39833486868125	432.9958632933076	23.101999123962234	-93.66406463260536	249.2221906649347	130.46119346172597
585	2.92	-90.36378427828116	582.6999482214493	272.299503648111	-152.26861919084334	432.6276938003766	23.191900736104813	-93.49187389988217	248.03355858618448	129.1637135744263
586	2.925	-90.3574564090195	582.5396109803593	272.2914592401593	-152.13592052354184	432.2640067433863	23.275810223040665	-93.31787575397598	246.86641187467472	127.86738798325409
587	2.93	-90.34999510845773	582.3774612409429	272.2829518661221	-152.00041379852036	431.90512456516217	23.353595755585907	-93.14243297744324	245.72098622007155	126.5727657288483
588	2.935	-90.34139739855304	582.213597479867	272.2739868988287	-151.8622715867483	431.5513525824727	23.425143901941894	-92.96590130903496	244.5974908748945	125.28040353578476
589	2.94	-90.33166175911872	582.0481191332823	272.2645712806859	-151.7216638253214	431.20297848151523	23.49035977157791	-92.78862853728245	243.49610856200502	123.99086502148154
590	2.945	-90.32078813303406	581.8811264061894	272.2547135076547	-151.57875756473933	430.86027186499837	23.549167092692606	-92.61095363630852	242.4169954159811	122.70471986188569
591	2.95	-90.30877792710545	581.7127200819148	272.24442360826015	-151.43371673631384	430.52348385165834	23.601508223967347	-92.43320594705125	241.36028095927958	121.4225429161599
592	2.955	-90.29563400865557	581.5430013321458	272.2337131176928	-151.2867019394247	430.1928467289388	23.64734410157743	-92.25570440681669	240.32606811414877	120.14491331283203
593	2.96	-90.28136069793027	581.3720715279838	272.22259504707654	-151.13787024831933	429.86857365945576	23.686654122666003	-92.07875682979011	239.31443325130414	118.8724135001049
594	2.965	-90.26596375642667	581.2000320524685	272.2110838479976	-150.98737503813587	429.55085844175414	23.719435966710343	-91.90265924083691	238.32542627641416	117.6056282632458
595	2.97	-90.24945037125661	581.0269841150231	272.19919537240577	-150.83536582982035	429.2398753257511	23.745705356421457	-91.72769526461505	237.35907075546305	116.34514371218506
596	2.975	-90.2318291356713	580.8530285682808	272.186946828017	-150.68198815360446	428.9357788831459	23.765495760015646	-91.55413557170426	236.41536408005715	115.09154624264735
597	2.98	-90.21311002588278	580.6782657277332	272.1743567293648	-150.52738343070666	428.63870393295326	23.778858036880948	-91.38223738313701	235.49427767372407	113.84542147431787
598	2.985	-90.19330437432761	580.5027951946548	272.16144484466184	-150.37168887291713	428.3487655221919	23.78586002883287	-91.21224403439336	234.59575724021627	112.60735316970653
599	2.99	-90.17242483952526	580.3267156827393	272.14823213865253	-150.21503739972286	428.0660589616269	23.78658609931254	-91.04438459960063	233.71972305477047	111.37792213751526
600	2.995	-90.15048537269251	580.1501248488859	272.13474071165007	-150.0575575726233	427.79065991632734	23.781136623026825	-90.87887357636001	232.86607029919634	110.15770512443729
601	3.0	-90.12750118128038	579.9731191285654	272.12099373496767	-149.89937354627637	427.52262455065545	23.769627428664457	-90.71591063130978	232.03466944156526	108.94727369941806
602	3.005	-90.10348868960578	579.7957935761827	272.10701538296706	-149.74060503610053	427.2619897271503	23.75218919744497	-90.55568040622975	231.22536666114829	107.74719313448877
603	3.01	-90.07846549675567	579.6182417108489	272.0928307619615	-149.5813673019406	427.0087732586133	23.72896682036853	-90.3983523841967	230.43798431911085	106.55802128634221
604	3.015	-90.05245033194372	579.4405553679619	272.07846583622035	-149.42177114738035	426.762974212539	23.7001187171346	-90.24408081501615	229.6723214753086	105.38030748285638
